<svg width="68" height="25" viewBox="0 0 68 25" fill="none" xmlns="http://www.w3.org/2000/svg">
<rect width="66.4615" height="24" fill="white"/>
<path d="M0.923096 0H55.607C61.9875 0 67.1599 5.17242 67.1599 11.5529V13.0933C67.1599 19.4738 61.9875 24.6462 55.607 24.6462H12.476C6.09552 24.6462 0.923096 19.4738 0.923096 13.0933V0Z" fill="#CEDC27"/>
<path d="M16.2099 10.2593C16.6844 9.78481 17.2163 9.43257 17.8058 9.20254C18.4096 8.95813 19.0206 8.83593 19.6389 8.83593C20.2571 8.83593 20.8609 8.95813 21.4504 9.20254C22.0542 9.43257 22.5933 9.78481 23.0678 10.2593L23.7363 10.9278L22.3992 12.2864L21.7091 11.6179C21.4216 11.3303 21.0981 11.1147 20.7387 10.9709C20.3793 10.8271 20.0127 10.7553 19.6389 10.7553C19.2651 10.7553 18.8984 10.8271 18.539 10.9709C18.1796 11.1147 17.8561 11.3303 17.5686 11.6179C17.281 11.891 17.0654 12.2073 16.9216 12.5668C16.7778 12.9262 16.7059 13.2928 16.7059 13.6666C16.7059 14.0404 16.7778 14.407 16.9216 14.7664C17.0654 15.1259 17.281 15.4493 17.5686 15.7369C18.1436 16.312 18.8337 16.5995 19.6389 16.5995C20.027 16.5995 20.4008 16.5276 20.7603 16.3838C21.1197 16.2401 21.436 16.0244 21.7091 15.7369L22.3992 15.0683L23.7363 16.427L23.0678 17.0955C22.5933 17.5699 22.0542 17.9294 21.4504 18.1738C20.8609 18.4038 20.2571 18.5188 19.6389 18.5188C19.0206 18.5188 18.4096 18.4038 17.8058 18.1738C17.2163 17.9294 16.6844 17.5699 16.2099 17.0955C15.7355 16.6211 15.3833 16.0891 15.1532 15.4997C14.9232 14.9102 14.8082 14.3064 14.8082 13.6882C14.8082 13.0556 14.9232 12.4446 15.1532 11.8551C15.3833 11.2656 15.7355 10.7337 16.2099 10.2593ZM29.3475 8.83593C30.0232 8.83593 30.6486 8.96532 31.2237 9.22411C31.8132 9.46852 32.3307 9.81356 32.7764 10.2593C33.2221 10.6906 33.5672 11.2009 33.8116 11.7904C34.0704 12.3655 34.1998 12.9909 34.1998 13.6666V18.5188H32.2804V13.6666C32.2804 13.264 32.2014 12.8902 32.0432 12.5452C31.8994 12.1858 31.691 11.8767 31.4178 11.6179C31.159 11.3447 30.8499 11.1362 30.4905 10.9925C30.1311 10.8343 29.7501 10.7553 29.3475 10.7553C28.945 10.7553 28.564 10.8343 28.2046 10.9925C27.8595 11.1362 27.5504 11.3447 27.2772 11.6179C27.0185 11.8767 26.81 12.1858 26.6518 12.5452C26.5081 12.8902 26.4362 13.264 26.4362 13.6666V18.5188H24.5169V4.95414H26.4362V9.82794C26.8387 9.51165 27.2844 9.26724 27.7732 9.09471C28.2764 8.92219 28.8012 8.83593 29.3475 8.83593ZM39.5822 8.83593C40.2579 8.83593 40.8833 8.96532 41.4584 9.22411C42.0478 9.46852 42.5582 9.81356 42.9895 10.2593C43.4352 10.6906 43.7803 11.2009 44.0247 11.7904C44.2835 12.3655 44.4129 12.9909 44.4129 13.6666V18.5188H39.5822C38.9208 18.5188 38.2955 18.3966 37.706 18.1522C37.1165 17.8934 36.599 17.5412 36.1533 17.0955C35.7076 16.6498 35.3554 16.1322 35.0966 15.5428C34.8522 14.9533 34.73 14.3279 34.73 13.6666C34.73 12.9909 34.8522 12.3655 35.0966 11.7904C35.3554 11.2009 35.7076 10.6906 36.1533 10.2593C36.599 9.81356 37.1165 9.46852 37.706 9.22411C38.2955 8.96532 38.9208 8.83593 39.5822 8.83593ZM42.4935 16.5995V13.6666C42.4935 13.264 42.4145 12.8902 42.2563 12.5452C42.1125 12.1858 41.9041 11.8767 41.6309 11.6179C41.3721 11.3447 41.063 11.1362 40.7036 10.9925C40.3585 10.8343 39.9847 10.7553 39.5822 10.7553C39.1796 10.7553 38.7986 10.8343 38.4392 10.9925C38.0798 11.1362 37.7635 11.3447 37.4903 11.6179C37.2316 11.8767 37.0231 12.1858 36.8649 12.5452C36.7212 12.8902 36.6493 13.264 36.6493 13.6666C36.6493 14.0691 36.7212 14.4501 36.8649 14.8096C37.0231 15.169 37.2316 15.4853 37.4903 15.7584C37.7635 16.0172 38.0798 16.2257 38.4392 16.3838C38.7986 16.5276 39.1796 16.5995 39.5822 16.5995H42.4935ZM50.7668 16.5995V18.5188H49.8179C49.1565 18.5188 48.5311 18.3966 47.9417 18.1522C47.3522 17.8934 46.8346 17.5412 46.389 17.0955C45.9433 16.6498 45.591 16.1322 45.3323 15.5428C45.0878 14.9533 44.9656 14.3279 44.9656 13.6666V4.95414H46.885V10.7768H50.7668V12.6961H46.885V13.6666C46.885 14.0691 46.9569 14.4501 47.1006 14.8096C47.2588 15.169 47.4672 15.4853 47.726 15.7584C47.9992 16.0172 48.3155 16.2257 48.6749 16.3838C49.0343 16.5276 49.4153 16.5995 49.8179 16.5995H50.7668Z" fill="#067B6D"/>
</svg>
