<svg width="62" height="34" viewBox="0 0 62 34" fill="none" xmlns="http://www.w3.org/2000/svg">
<path d="M17.2189 17.7494H10.7541C9.34505 17.7494 8.09144 18.2467 6.99325 19.2413C5.91577 20.2152 5.37703 21.417 5.37703 22.8467C5.37703 24.1521 5.81216 25.2918 6.68243 26.2656C7.57343 27.2395 8.67162 27.7264 9.97703 27.7264H12.2149V32.8237L9.66622 32.8548C6.93108 32.8548 4.63108 31.8809 2.76622 29.9332C0.922072 27.9854 0 25.6336 0 22.8778C0 20.0183 1.08784 17.5733 3.26351 15.5427C5.43919 13.512 8.01892 12.4967 11.0027 12.4967L22.4716 12.4656L17.2189 17.7494ZM12.2149 32.8237V20.2359H17.25V32.8237H12.2149Z" fill="#F1F1F1"/>
<path d="M23.8632 12.4656H38.9997L23.7078 27.7575H35.4254V32.8237H18.5484V26.1724L26.847 17.7183H18.6416L23.8632 12.4656Z" fill="#F1F1F1"/>
<path d="M49.8176 26.8562C51.351 25.8616 52.1176 24.4318 52.1176 22.567C52.1176 20.9508 51.61 19.6972 50.5947 18.8062C49.5794 17.8945 48.3672 17.4386 46.9582 17.4386C45.5906 17.4386 44.3992 17.8841 43.3839 18.7751C42.3685 19.6454 41.8609 20.9093 41.8609 22.567C41.8609 24.0174 42.3582 25.24 43.3528 26.2345C44.3681 27.2084 45.6631 27.6954 47.2379 27.6954H61.5154L56.7176 32.8237L47.7041 33.0102C44.4717 33.0102 41.8091 32.0156 39.7163 30.0264C37.6235 28.0165 36.5771 25.53 36.5771 22.567C36.5771 19.2931 37.6131 16.7341 39.6852 14.89C41.7573 13.0251 44.223 12.0927 47.0825 12.0927C49.942 12.0927 52.1384 12.7868 53.6717 14.1751C55.2257 15.5427 56.2618 16.8584 56.7798 18.1224C57.2978 19.3863 57.5568 20.8679 57.5568 22.567C57.5568 23.9345 57.2771 25.3643 56.7176 26.8562L55.692 26.8872H50.2217L49.8176 26.8562Z" fill="#F1F1F1"/>
<path d="M0 0H23.2162C25.925 0 28.121 2.19596 28.121 4.90482V5.5588C28.121 8.26766 25.925 10.4636 23.2162 10.4636H4.90483C2.19597 10.4636 0 8.26766 0 5.5588V0Z" fill="#CEDC27"/>
<path d="M6.49026 4.13822C6.69169 3.93679 6.91752 3.78725 7.16778 3.68959C7.42414 3.58582 7.68355 3.53394 7.94601 3.53394C8.20847 3.53394 8.46483 3.58582 8.71509 3.68959C8.97145 3.78725 9.20034 3.93679 9.40176 4.13822L9.68559 4.42204L9.11794 4.99885L8.82496 4.71502C8.70288 4.59295 8.56555 4.50139 8.41295 4.44035C8.26036 4.37931 8.10471 4.3488 7.94601 4.3488C7.78731 4.3488 7.63167 4.37931 7.47907 4.44035C7.32648 4.50139 7.18914 4.59295 7.06707 4.71502C6.94499 4.83099 6.85344 4.96528 6.7924 5.11787C6.73136 5.27047 6.70084 5.42611 6.70084 5.58481C6.70084 5.74351 6.73136 5.89916 6.7924 6.05175C6.85344 6.20434 6.94499 6.34168 7.06707 6.46375C7.31122 6.70791 7.6042 6.82998 7.94601 6.82998C8.11081 6.82998 8.26951 6.79946 8.42211 6.73842C8.5747 6.67739 8.70898 6.58583 8.82496 6.46375L9.11794 6.17993L9.68559 6.75674L9.40176 7.04056C9.20034 7.24199 8.97145 7.39458 8.71509 7.49835C8.46483 7.59601 8.20847 7.64484 7.94601 7.64484C7.68355 7.64484 7.42414 7.59601 7.16778 7.49835C6.91752 7.39458 6.69169 7.24199 6.49026 7.04056C6.28884 6.83914 6.13929 6.6133 6.04163 6.36304C5.94397 6.11279 5.89514 5.85643 5.89514 5.59397C5.89514 5.3254 5.94397 5.06599 6.04163 4.81573C6.13929 4.56548 6.28884 4.33964 6.49026 4.13822ZM12.0679 3.53394C12.3547 3.53394 12.6202 3.58887 12.8644 3.69874C13.1146 3.80251 13.3344 3.949 13.5236 4.13822C13.7128 4.32133 13.8593 4.53801 13.9631 4.78827C14.0729 5.03242 14.1279 5.29793 14.1279 5.58481V7.64484H13.313V5.58481C13.313 5.4139 13.2795 5.25521 13.2123 5.10872C13.1513 4.95612 13.0628 4.82489 12.9468 4.71502C12.8369 4.59905 12.7057 4.51055 12.5531 4.44951C12.4005 4.38237 12.2388 4.3488 12.0679 4.3488C11.8969 4.3488 11.7352 4.38237 11.5826 4.44951C11.4361 4.51055 11.3049 4.59905 11.1889 4.71502C11.079 4.82489 10.9905 4.95612 10.9234 5.10872C10.8624 5.25521 10.8318 5.4139 10.8318 5.58481V7.64484H10.017V1.88592H10.8318V3.9551C11.0027 3.82082 11.192 3.71705 11.3995 3.64381C11.6131 3.57056 11.8359 3.53394 12.0679 3.53394ZM16.413 3.53394C16.6999 3.53394 16.9654 3.58887 17.2095 3.69874C17.4598 3.80251 17.6765 3.949 17.8596 4.13822C18.0488 4.32133 18.1953 4.53801 18.2991 4.78827C18.4089 5.03242 18.4639 5.29793 18.4639 5.58481V7.64484H16.413C16.1322 7.64484 15.8667 7.59295 15.6165 7.48919C15.3662 7.37932 15.1465 7.22978 14.9573 7.04056C14.768 6.85134 14.6185 6.63161 14.5086 6.38135C14.4049 6.1311 14.353 5.86558 14.353 5.58481C14.353 5.29793 14.4049 5.03242 14.5086 4.78827C14.6185 4.53801 14.768 4.32133 14.9573 4.13822C15.1465 3.949 15.3662 3.80251 15.6165 3.69874C15.8667 3.58887 16.1322 3.53394 16.413 3.53394ZM17.649 6.82998V5.58481C17.649 5.4139 17.6154 5.25521 17.5483 5.10872C17.4873 4.95612 17.3988 4.82489 17.2828 4.71502C17.1729 4.59905 17.0417 4.51055 16.8891 4.44951C16.7426 4.38237 16.5839 4.3488 16.413 4.3488C16.2421 4.3488 16.0803 4.38237 15.9278 4.44951C15.7752 4.51055 15.6409 4.59905 15.5249 4.71502C15.415 4.82489 15.3265 4.95612 15.2594 5.10872C15.1984 5.25521 15.1678 5.4139 15.1678 5.58481C15.1678 5.75572 15.1984 5.91747 15.2594 6.07006C15.3265 6.22266 15.415 6.35694 15.5249 6.47291C15.6409 6.58278 15.7752 6.67128 15.9278 6.73842C16.0803 6.79946 16.2421 6.82998 16.413 6.82998H17.649ZM21.1614 6.82998V7.64484H20.7586C20.4778 7.64484 20.2123 7.59295 19.962 7.48919C19.7118 7.37932 19.492 7.22978 19.3028 7.04056C19.1136 6.85134 18.9641 6.63161 18.8542 6.38135C18.7504 6.1311 18.6986 5.86558 18.6986 5.58481V1.88592H19.5134V4.35795H21.1614V5.17281H19.5134V5.58481C19.5134 5.75572 19.5439 5.91747 19.605 6.07006C19.6721 6.22266 19.7606 6.35694 19.8705 6.47291C19.9865 6.58278 20.1207 6.67128 20.2733 6.73842C20.4259 6.79946 20.5877 6.82998 20.7586 6.82998H21.1614Z" fill="#045C52"/>
</svg>
