<svg width="219" height="219" viewBox="0 0 219 219" fill="none" xmlns="http://www.w3.org/2000/svg">
<rect width="219" height="219" rx="22" fill="#067B6D"/>
<path d="M75.0835 105.159H58.1569C54.4677 105.159 51.1855 106.462 48.3101 109.066C45.489 111.615 44.0784 114.762 44.0784 118.505C44.0784 121.923 45.2177 124.907 47.4963 127.457C49.8292 130.007 52.7045 131.282 56.1224 131.282H61.9816V144.628L55.3086 144.709C48.1473 144.709 42.1254 142.159 37.2427 137.06C32.4142 131.96 30 125.802 30 118.587C30 111.1 32.8482 104.698 38.5447 99.3816C44.2412 94.0649 50.9956 91.4065 58.8079 91.4065L88.8365 91.3252L75.0835 105.159ZM61.9816 144.628V111.67H75.1649V144.628H61.9816Z" fill="#F1F1F1"/>
<path d="M92.48 91.3252H132.111L92.0732 131.363H122.753V144.628H78.5644V127.213L100.292 105.078H78.8085L92.48 91.3252Z" fill="#F1F1F1"/>
<path d="M160.435 129.003C164.45 126.399 166.457 122.656 166.457 117.773C166.457 113.541 165.128 110.259 162.47 107.926C159.811 105.539 156.638 104.346 152.949 104.346C149.368 104.346 146.248 105.512 143.59 107.845C140.932 110.124 139.603 113.433 139.603 117.773C139.603 121.571 140.905 124.772 143.509 127.376C146.167 129.926 149.558 131.201 153.681 131.201H191.063L178.501 144.628L154.902 145.116C146.438 145.116 139.467 142.512 133.987 137.304C128.508 132.041 125.768 125.531 125.768 117.773C125.768 109.201 128.481 102.501 133.906 97.6727C139.331 92.79 145.787 90.3486 153.274 90.3486C160.761 90.3486 166.512 92.1661 170.526 95.801C174.595 99.3816 177.308 102.827 178.664 106.136C180.02 109.445 180.699 113.324 180.699 117.773C180.699 121.354 179.966 125.097 178.501 129.003L175.816 129.085H161.493L160.435 129.003Z" fill="#F1F1F1"/>
<path d="M30 57H90.7859C97.8783 57 103.628 62.7496 103.628 69.8421V71.5543C103.628 78.6468 97.8783 84.3964 90.7858 84.3964H42.8421C35.7496 84.3964 30 78.6468 30 71.5544V57Z" fill="#CEDC27"/>
<path d="M46.9928 68.5071C47.5202 67.9797 48.1115 67.5882 48.7667 67.3325C49.438 67.0608 50.1172 66.9249 50.8043 66.9249C51.4915 66.9249 52.1628 67.0608 52.818 67.3325C53.4892 67.5882 54.0885 67.9797 54.6159 68.5071L55.359 69.2502L53.8728 70.7604L53.1057 70.0173C52.786 69.6977 52.4264 69.458 52.0269 69.2982C51.6274 69.1383 51.2199 69.0584 50.8043 69.0584C50.3888 69.0584 49.9813 69.1383 49.5818 69.2982C49.1823 69.458 48.8227 69.6977 48.503 70.0173C48.1834 70.321 47.9437 70.6725 47.7839 71.0721C47.6241 71.4716 47.5442 71.8791 47.5442 72.2946C47.5442 72.7102 47.6241 73.1177 47.7839 73.5172C47.9437 73.9167 48.1834 74.2763 48.503 74.5959C49.1423 75.2352 49.9094 75.5548 50.8043 75.5548C51.2358 75.5548 51.6514 75.4749 52.0509 75.3151C52.4504 75.1553 52.802 74.9156 53.1057 74.5959L53.8728 73.8528L55.359 75.363L54.6159 76.1062C54.0885 76.6336 53.4892 77.0331 52.818 77.3048C52.1628 77.5605 51.4915 77.6883 50.8043 77.6883C50.1172 77.6883 49.438 77.5605 48.7667 77.3048C48.1115 77.0331 47.5202 76.6336 46.9928 76.1062C46.4654 75.5788 46.0739 74.9875 45.8182 74.3323C45.5625 73.677 45.4346 73.0058 45.4346 72.3186C45.4346 71.6154 45.5625 70.9362 45.8182 70.281C46.0739 69.6258 46.4654 69.0345 46.9928 68.5071ZM61.5964 66.9249C62.3475 66.9249 63.0427 67.0688 63.6819 67.3564C64.3372 67.6281 64.9125 68.0117 65.4079 68.5071C65.9033 68.9865 66.2869 69.5539 66.5586 70.2091C66.8462 70.8483 66.9901 71.5435 66.9901 72.2946V77.6883H64.8566V72.2946C64.8566 71.8472 64.7687 71.4317 64.5929 71.0481C64.4331 70.6486 64.2013 70.305 63.8977 70.0173C63.61 69.7137 63.2664 69.4819 62.8669 69.3221C62.4674 69.1463 62.0439 69.0584 61.5964 69.0584C61.1489 69.0584 60.7254 69.1463 60.3259 69.3221C59.9423 69.4819 59.5987 69.7137 59.2951 70.0173C59.0074 70.305 58.7757 70.6486 58.5999 71.0481C58.4401 71.4317 58.3602 71.8472 58.3602 72.2946V77.6883H56.2267V62.61H58.3602V68.0276C58.8077 67.6761 59.3031 67.4044 59.8464 67.2126C60.4058 67.0208 60.9891 66.9249 61.5964 66.9249ZM72.9731 66.9249C73.7242 66.9249 74.4194 67.0688 75.0587 67.3564C75.7139 67.6281 76.2812 68.0117 76.7607 68.5071C77.2561 68.9865 77.6396 69.5539 77.9113 70.2091C78.199 70.8483 78.3428 71.5435 78.3428 72.2946V77.6883H72.9731C72.238 77.6883 71.5428 77.5525 70.8875 77.2808C70.2323 76.9931 69.657 76.6016 69.1616 76.1062C68.6662 75.6108 68.2746 75.0354 67.9869 74.3802C67.7153 73.725 67.5794 73.0298 67.5794 72.2946C67.5794 71.5435 67.7153 70.8483 67.9869 70.2091C68.2746 69.5539 68.6662 68.9865 69.1616 68.5071C69.657 68.0117 70.2323 67.6281 70.8875 67.3564C71.5428 67.0688 72.238 66.9249 72.9731 66.9249ZM76.2093 75.5548V72.2946C76.2093 71.8472 76.1214 71.4317 75.9456 71.0481C75.7858 70.6486 75.5541 70.305 75.2504 70.0173C74.9628 69.7137 74.6192 69.4819 74.2196 69.3221C73.8361 69.1463 73.4206 69.0584 72.9731 69.0584C72.5256 69.0584 72.1021 69.1463 71.7026 69.3221C71.3031 69.4819 70.9515 69.7137 70.6478 70.0173C70.3602 70.305 70.1284 70.6486 69.9526 71.0481C69.7928 71.4317 69.7129 71.8472 69.7129 72.2946C69.7129 72.7421 69.7928 73.1656 69.9526 73.5652C70.1284 73.9647 70.3602 74.3163 70.6478 74.6199C70.9515 74.9076 71.3031 75.1393 71.7026 75.3151C72.1021 75.4749 72.5256 75.5548 72.9731 75.5548H76.2093ZM85.4057 75.5548V77.6883H84.3509C83.6158 77.6883 82.9206 77.5525 82.2654 77.2808C81.6102 76.9931 81.0348 76.6016 80.5394 76.1062C80.044 75.6108 79.6525 75.0354 79.3648 74.3802C79.0931 73.725 78.9573 73.0298 78.9573 72.2946V62.61H81.0908V69.0824H85.4057V71.2159H81.0908V72.2946C81.0908 72.7421 81.1707 73.1656 81.3305 73.5652C81.5063 73.9647 81.738 74.3163 82.0257 74.6199C82.3293 74.9076 82.6809 75.1393 83.0804 75.3151C83.48 75.4749 83.9035 75.5548 84.3509 75.5548H85.4057Z" fill="#045C52"/>
</svg>
